<svg xmlns="http://www.w3.org/2000/svg" xmlns:xlink="http://www.w3.org/1999/xlink" width="1024" zoomAndPan="magnify" viewBox="0 0 768 767.999994" height="1024" preserveAspectRatio="xMidYMid meet" version="1.2"><defs><clipPath id="164c646a47"><path d="M 21.054688 12 L 747 12 L 747 764.957031 L 21.054688 764.957031 Z M 21.054688 12 "/></clipPath></defs><g id="9f3cdba61e"><g clip-rule="nonzero" clip-path="url(#164c646a47)"><path style=" stroke:none;fill-rule:nonzero;fill:#070101;fill-opacity:1;" d="M 635.242188 764.910156 L 523.542969 764.910156 C 477.371094 764.910156 439.820312 727.359375 439.820312 681.1875 L 439.820312 625.339844 C 439.820312 609.949219 427.285156 597.464844 411.945312 597.464844 L 356.046875 597.464844 C 340.65625 597.464844 328.171875 610 328.171875 625.339844 L 328.171875 681.1875 C 328.171875 727.359375 290.621094 764.910156 244.449219 764.910156 L 132.703125 764.910156 C 71.136719 764.910156 21.054688 714.828125 21.054688 653.261719 L 21.054688 355.070312 C 21.054688 323.835938 34.242188 293.855469 57.25 272.800781 L 308.519531 42.488281 C 351.535156 3.082031 416.457031 3.082031 459.472656 42.488281 L 710.742188 272.800781 C 733.753906 293.90625 746.9375 323.886719 746.9375 355.070312 L 746.9375 653.214844 C 746.886719 714.828125 696.804688 764.910156 635.242188 764.910156 Z M 356.046875 541.617188 L 411.945312 541.617188 C 458.117188 541.617188 495.667969 579.167969 495.667969 625.339844 L 495.667969 681.1875 C 495.667969 696.578125 508.203125 709.0625 523.542969 709.0625 L 635.242188 709.0625 C 666.023438 709.0625 691.089844 684.046875 691.089844 653.214844 L 691.089844 355.070312 C 691.089844 339.476562 684.472656 324.488281 672.992188 313.960938 L 421.722656 83.648438 C 400.214844 63.894531 367.726562 63.894531 346.222656 83.648438 L 95.003906 313.960938 C 83.519531 324.488281 76.902344 339.476562 76.902344 355.070312 L 76.902344 653.214844 C 76.902344 683.996094 101.921875 709.0625 132.753906 709.0625 L 244.449219 709.0625 C 259.839844 709.0625 272.324219 696.527344 272.324219 681.1875 L 272.324219 625.339844 C 272.324219 579.167969 309.875 541.617188 356.046875 541.617188 Z M 356.046875 541.617188 "/></g></g></svg>